<svg width="16" height="16" viewBox="0 0 16 16" fill="none" xmlns="http://www.w3.org/2000/svg">
<path d="M12.3333 6H3.66667C3.29848 6 3 6.29848 3 6.66667V13.3333C3 13.7015 3.29848 14 3.66667 14H12.3333C12.7015 14 13 13.7015 13 13.3333V6.66667C13 6.29848 12.7015 6 12.3333 6Z" stroke="white" stroke-width="1.33333"/>
<path d="M5.66667 9.33333C6.03486 9.33333 6.33333 9.03486 6.33333 8.66667C6.33333 8.29848 6.03486 8 5.66667 8C5.29848 8 5 8.29848 5 8.66667C5 9.03486 5.29848 9.33333 5.66667 9.33333Z" fill="white"/>
<path d="M10.3334 9.33333C10.7016 9.33333 11.0001 9.03486 11.0001 8.66667C11.0001 8.29848 10.7016 8 10.3334 8C9.96522 8 9.66675 8.29848 9.66675 8.66667C9.66675 9.03486 9.96522 9.33333 10.3334 9.33333Z" fill="white"/>
<path d="M6.66667 10.667C6.29847 10.667 6 10.9655 6 11.3337C6 11.7019 6.29847 12.0003 6.66667 12.0003V10.667ZM9.33333 12.0003C9.70153 12.0003 10 11.7019 10 11.3337C10 10.9655 9.70153 10.667 9.33333 10.667V12.0003ZM6.66667 12.0003H9.33333V10.667H6.66667V12.0003Z" fill="white"/>
<path d="M8 3.33301V5.99967" stroke="white" stroke-width="1.33333" stroke-linecap="round" stroke-linejoin="round"/>
<path d="M1.33325 8.66699V11.3337" stroke="white" stroke-width="1.33333" stroke-linecap="round" stroke-linejoin="round"/>
<path d="M14.6667 8.66699V11.3337" stroke="white" stroke-width="1.33333" stroke-linecap="round" stroke-linejoin="round"/>
<path d="M8 3C8.55228 3 9 2.55228 9 2C9 1.44772 8.55228 1 8 1C7.44772 1 7 1.44772 7 2C7 2.55228 7.44772 3 8 3Z" stroke="white" stroke-width="1.33333"/>
</svg>
