<svg width="20" height="20" viewBox="0 0 20 20" fill="none" xmlns="http://www.w3.org/2000/svg">
<path d="M5.88473 9.16064C6.10734 9.16064 6.32994 9.24883 6.50803 9.41638L13.7383 16.5064C14.0856 16.8503 14.0856 17.3971 13.7472 17.741C13.4089 18.0849 12.8479 18.0849 12.5006 17.7498L5.27033 10.6598C4.92511 10.3207 4.92113 9.76915 5.26143 9.4252C5.42171 9.24001 5.65322 9.16064 5.88473 9.16064Z" fill="currentColor"/>
<path d="M13.035 2C13.2576 2 13.4802 2.08818 13.6583 2.25574C14.0056 2.59966 14.0056 3.1464 13.6672 3.49032L6.50814 10.6509C6.16574 10.9928 5.60884 10.9967 5.26154 10.6597C4.91632 10.3206 4.91234 9.76909 5.25264 9.42514L12.4117 2.26455C12.5809 2.08818 12.8124 2 13.035 2Z" fill="currentColor"/>
</svg>
