<svg
        width="1em"
        height="1em"
        viewBox="0 0 24 24"
        fill="none"
        xmlns="http://www.w3.org/2000/svg"
        data-icon="ReturnItemOutlined"
        style="margin-right: 4px; vertical-align: -10%"
>
    <path
            d="M4 4h16v4h2V4a2 2 0 0 0-2-2H4a2 2 0 0 0-2 2v16a2 2 0 0 0 2 2h16a2 2 0 0 0 2-2v-7a2 2 0 0 0-2-2h-7.586l1.293-1.293a1 1 0 1 0-1.414-1.414l-3 3a1 1 0 0 0 0 1.414l3 3a1 1 0 0 0 1.414-1.414L12.414 13H20v7H4V4Z"
            fill="currentColor"
    ></path>
</svg>
