<svg width="20" height="20" viewBox="0 0 20 20" fill="none" xmlns="http://www.w3.org/2000/svg">
    <g>
        <path d="M8.03155 15.3036C7.70611 15.629 7.17847 15.629 6.85302 15.3036C6.52756 14.9781 6.52755 14.4505 6.853 14.125L10.1445 10.8336L5.00166 10.8335C4.54141 10.8335 4.16831 10.4604 4.16833 10.0001C4.16836 9.53991 4.54145 9.16684 5.00168 9.16684L10.1445 9.16691L6.85297 5.8755C6.52753 5.55006 6.52753 5.02243 6.85297 4.69699C7.1784 4.37156 7.70603 4.37156 8.03146 4.69699L12.2421 8.90759C12.8456 9.51105 12.8456 10.4895 12.2421 11.0929L8.03155 15.3036ZM15.8346 5.167C16.2949 5.167 16.668 5.54009 16.668 6.00033L16.668 14.0003C16.668 14.4606 16.2949 14.8336 15.8346 14.8336C15.3744 14.8336 15.0013 14.4606 15.0013 14.0003L15.0013 6.00033C15.0013 5.54009 15.3744 5.167 15.8346 5.167Z" fill="currentColor" />
    </g>
</svg>
    