<svg width="16" height="16" viewBox="0 0 1024 1024" version="1.1" xmlns="http://www.w3.org/2000/svg"><path d="M995.5584 839.0912 896 839.0912 896 355.5584c0-15.6928-12.7488-28.4416-28.4416-28.4416s-28.4416 12.7488-28.4416 28.4416l0 483.5584L225.1008 839.1168 930.3552 133.888c11.1104-11.1104 11.1104-29.1072 0-40.2176-11.136-11.1104-29.1584-11.1104-40.2432 0L184.8832 798.8992 184.8832 184.8832l469.3248 0c15.7184 0 28.416-12.7488 28.416-28.4416C682.6496 140.7488 669.952 128 654.2336 128L184.8832 128 184.8832 28.4416C184.8832 12.7488 172.16 0 156.4416 0 140.7488 0 128 12.7488 128 28.4416L128 128 28.4416 128C12.7488 128 0 140.7488 0 156.4416c0 15.6928 12.7488 28.4416 28.4416 28.4416L128 184.8832l0 682.6752C128 883.2512 140.7488 896 156.4416 896l682.6496 0 0 99.5584c0 15.6928 12.7488 28.4416 28.4416 28.4416S896 1011.2512 896 995.5584L896 896l99.5584 0C1011.2512 896 1024 883.2512 1024 867.5584S1011.2512 839.0912 995.5584 839.0912z" fill="currentColor"></path></svg>