<svg width="16" height="18" viewBox="0 0 1024 1024" version="1.1" xmlns="http://www.w3.org/2000/svg"><path d="M384.3 335.2a32.8 32.8 0 1 0 46.4-46.5L291.4 149.4a32.8 32.8 0 0 0-46.4 0L105.6 288.7a32.9 32.9 0 0 0 46.5 46.5l83.3-83.3v520.2l-83.3-83.3a32.9 32.9 0 0 0-46.5 46.5L245 874.6a32.8 32.8 0 0 0 46.4 0l139.3-139.3a32.8 32.8 0 0 0-46.4-46.5L301.1 772V252zM533.9 205.5m51.9 0l290.3 0q51.9 0 51.9 51.9l0 5.67q0 51.9-51.9 51.9l-290.3 0q-51.9 0-51.9-51.9l0-5.67q0-51.9 51.9-51.9ZM533.9 709.1m51.9 0l290.3 0q51.9 0 51.9 51.9l0 5.67q0 51.9-51.9 51.9l-290.3 0q-51.9 0-51.9-51.9l0-5.67q0-51.9 51.9-51.9ZM533.9 457.3m51.9 0l290.3 0q51.9 0 51.9 51.9l0 5.67q0 51.9-51.9 51.9l-290.3 0q-51.9 0-51.9-51.9l0-5.67q0-51.9 51.9-51.9Z" fill="currentColor"></path></svg>