<svg width="16" height="16" viewBox="0 0 16 16" fill="none" xmlns="http://www.w3.org/2000/svg">
<path d="M12.9629 8.02823L11.5533 9.43782C11.3209 9.67025 10.9385 9.67025 10.706 9.43782C10.4736 9.20539 10.4736 8.823 10.706 8.59057L12.1156 7.18098C12.5515 6.74266 12.7962 6.14962 12.7962 5.53146C12.7962 4.91331 12.5515 4.32027 12.1156 3.88195C11.6732 3.43958 11.0884 3.19965 10.4661 3.19965C9.84378 3.19965 9.25146 3.43958 8.81659 3.88195L7.407 5.29154C7.17457 5.52397 6.79218 5.52397 6.55975 5.29154C6.44812 5.1788 6.3855 5.02656 6.3855 4.86791C6.3855 4.70926 6.44812 4.55702 6.55975 4.44428L7.96933 3.0347C8.65913 2.3449 9.55887 2 10.4661 2C11.1648 1.99942 11.8479 2.20619 12.429 2.59413C13.0101 2.98206 13.463 3.5337 13.7303 4.1792C13.9977 4.8247 14.0675 5.53502 13.9308 6.22021C13.7942 6.9054 13.4573 7.53463 12.9629 8.02823Z" fill="currentColor"/>
<path d="M6.14739 9.85058C6.03576 9.73784 5.97314 9.5856 5.97314 9.42695C5.97314 9.2683 6.03576 9.11606 6.14739 9.00333L9.01155 6.13917C9.24399 5.90674 9.62637 5.90674 9.85881 6.13917C10.0912 6.3716 10.0912 6.75399 9.85881 6.98642L6.99464 9.85058C6.75472 10.0905 6.37983 10.0905 6.14739 9.85058Z" fill="currentColor"/>
<path d="M9.43899 11.5516L8.0294 12.9612C7.33961 13.651 6.43987 13.9959 5.53264 13.9959C4.83396 13.9965 4.15083 13.7897 3.56975 13.4018C2.98867 13.0139 2.53577 12.4622 2.26842 11.8167C2.00107 11.1712 1.93128 10.4609 2.0679 9.77572C2.20452 9.09054 2.54139 8.4613 3.03587 7.9677L4.44546 6.55811C4.67789 6.32568 5.06027 6.32568 5.29271 6.55811C5.52514 6.79054 5.52514 7.17293 5.29271 7.40536L3.88312 8.81495C3.44724 9.25327 3.20257 9.84631 3.20257 10.4645C3.20257 11.0826 3.44724 11.6757 3.88312 12.114C4.32549 12.5564 4.91032 12.7963 5.53264 12.7963C6.15495 12.7963 6.74728 12.5564 7.18215 12.114L8.59174 10.7044C8.82417 10.472 9.20656 10.472 9.43899 10.7044C9.67142 10.9368 9.67142 11.3192 9.43899 11.5516Z" fill="currentColor"/>
</svg>
