<svg viewBox="0 0 1024 1024" version="1.1" xmlns="http://www.w3.org/2000/svg" width="1em" height="1em" fill="currentColor"><path d="M704 474h132V188H640v124a8 8 0 0 0-8 8h-60a8 8 0 0 0-8-8V144c0-17.673 14.327-32 32-32h284c17.673 0 32 14.327 32 32v736c0 17.673-14.327 32-32 32H596c-17.673 0-32-14.327-32-32V712a8 8 0 0 0 8-8h60a8 8 0 0 0 8 8v124h196V550H704v81.407c0 7.143-8.295 11.194-13.825 6.717L539.27 518.717c-4.36-3.412-4.36-10.022 0-13.434l150.905-119.407c5.636-4.477 13.825-0.426 13.825 6.717V474z m-384 76H188v286h196V712a8 8 0 0 0 8-8h60a8 8 0 0 0 8 8v168c0 17.673-14.327 32-32 32H144c-17.673 0-32-14.327-32-32V144c0-17.673 14.327-32 32-32h284c17.673 0 32 14.327 32 32v168a8 8 0 0 0-8 8h-60a8 8 0 0 0-8-8V188H188v286h132v-81.407c0-7.143 8.189-11.194 13.825-6.717L484.73 505.283c4.36 3.412 4.36 10.022 0 13.434L333.825 638.124c-5.53 4.477-13.825 0.426-13.825-6.717V550z"></path></svg>