<svg width="16" height="16" viewBox="0 0 16 16" fill="none" xmlns="http://www.w3.org/2000/svg">
<path d="M2.37652 14H1.69971C1.30356 14 1 13.7057 1 13.3214C1 12.9361 1.30356 12.6418 1.69971 12.6418H2.37652C2.77363 12.6418 3.07623 12.9361 3.07623 13.3214C3.07623 13.7057 2.77363 14 2.37652 14ZM2.37652 8.67954H1.69971C1.30356 8.67954 1 8.38522 1 8C1 7.61478 1.30356 7.32046 1.69971 7.32046H2.37652C2.77363 7.32046 3.07623 7.61478 3.07623 8C3.07623 8.38522 2.77363 8.67954 2.37652 8.67954ZM2.37652 3.35818H1.69971C1.30356 3.35818 1 3.06387 1 2.67864C1 2.29432 1.30356 2 1.69971 2H2.37652C2.77363 2 3.07623 2.29432 3.07623 2.67864C3.07623 3.06387 2.77363 3.35818 2.37652 3.35818ZM5.01309 14C4.61694 14 4.31338 13.7057 4.31338 13.3214C4.31338 12.9361 4.61694 12.6418 5.01309 12.6418H14.3012C14.6974 12.6418 15 12.9361 15 13.3214C15 13.7057 14.6974 14 14.3003 14H5.01309C5.03696 14 5.03696 14 5.01309 14ZM5.01309 8.67954C4.61694 8.67954 4.31338 8.38522 4.31338 8C4.31338 7.61478 4.61694 7.32046 5.01309 7.32046H14.3012C14.6974 7.32046 15 7.61478 15 8C15 8.38522 14.6974 8.67954 14.3003 8.67954H5.01309C5.03696 8.67954 5.03696 8.67954 5.01309 8.67954ZM5.01309 3.35818C4.61694 3.35818 4.31338 3.06387 4.31338 2.67864C4.31338 2.29432 4.61694 2 5.01309 2H14.3012C14.6974 2 15 2.29432 15 2.67864C15 3.06387 14.6974 3.35818 14.3003 3.35818H5.01309C5.03696 3.35818 5.03696 3.35818 5.01309 3.35818Z" fill="currentColor"/>
</svg>
