<svg width="16" height="16" viewBox="0 0 16 16" fill="none" xmlns="http://www.w3.org/2000/svg">
<path d="M2.1288 11.4863C2.38717 11.4693 2.64463 11.5313 2.86178 11.6628C2.93483 11.7159 2.99345 11.7841 3.03291 11.8619C3.07237 11.9397 3.09158 12.025 3.089 12.111C3.0892 12.2118 3.05872 12.3107 3.00105 12.3962C2.92256 12.4876 2.82542 12.5637 2.71518 12.6203C2.79764 12.633 2.87827 12.661 2.94974 12.7018C3.03559 12.7496 3.10637 12.8175 3.15497 12.8987C3.20353 12.987 3.22827 13.0854 3.22827 13.1839C3.22657 13.3275 3.18356 13.4682 3.10366 13.5913C3.02331 13.722 2.9036 13.8282 2.75916 13.8969C2.57225 13.9724 2.36885 14.0072 2.16545 13.9987C1.97409 14.0038 1.78321 13.9786 1.60105 13.9241C1.47021 13.8734 1.35453 13.7942 1.26387 13.6932C1.16678 13.5815 1.09678 13.4519 1.05864 13.3129L1.79162 13.2246C1.80458 13.3309 1.8533 13.4307 1.93089 13.5098C1.99045 13.5659 2.07291 13.5947 2.15812 13.5913C2.20401 13.5917 2.24943 13.5828 2.29121 13.5652C2.33299 13.5476 2.37012 13.5217 2.4 13.4895C2.4695 13.4166 2.50622 13.3218 2.50262 13.2246C2.50752 13.1285 2.47354 13.034 2.40733 12.9598C2.3736 12.9293 2.33335 12.9057 2.28916 12.8905C2.24497 12.8753 2.19783 12.8688 2.15079 12.8715C2.0728 12.8641 1.99421 12.8641 1.91623 12.8715V12.3894H2.01152C2.05502 12.3901 2.09823 12.3827 2.13854 12.3675C2.17885 12.3523 2.21543 12.3297 2.24607 12.3011C2.27675 12.2769 2.30122 12.2467 2.3177 12.2126C2.33418 12.1786 2.34227 12.1415 2.34136 12.1042C2.34438 12.0377 2.3209 11.9724 2.27539 11.9209C2.21974 11.8787 2.14931 11.857 2.07749 11.8598C1.99982 11.8561 1.92362 11.8804 1.86492 11.9277C1.79154 12.0148 1.75273 12.1227 1.75497 12.2332L1.06597 12.1178C1.11279 11.9304 1.22963 11.7645 1.39581 11.6492C1.61479 11.5228 1.87225 11.4659 2.1288 11.4863ZM14.267 12.0635C14.4614 12.0635 14.6479 12.135 14.7853 12.2624C14.9228 12.3897 15 12.5624 15 12.7425C15 12.9226 14.9228 13.0953 14.7853 13.2227C14.6479 13.35 14.4614 13.4216 14.267 13.4216H5.4712C5.2768 13.4216 5.09037 13.35 4.95291 13.2227C4.81544 13.0953 4.73822 12.9226 4.73822 12.7425C4.73822 12.5624 4.81544 12.3897 4.95291 12.2624C5.09037 12.135 5.2768 12.0635 5.4712 12.0635H14.267ZM2.10681 6.76691C2.31087 6.75936 2.51468 6.78699 2.70785 6.84839C2.84498 6.8988 2.96249 6.98636 3.04503 7.09964C3.12259 7.21087 3.16336 7.34069 3.1623 7.47311C3.1623 7.6259 3.11466 7.77444 3.02304 7.90091C2.8856 8.07577 2.71427 8.22516 2.51728 8.34229L2.21675 8.53922L2.04817 8.66824H3.18429V9.22505H1C1.02382 9.02473 1.1017 8.8329 1.22723 8.66824C1.43246 8.42378 1.68076 8.21327 1.96021 8.04351C2.11047 7.9476 2.24882 7.8364 2.37068 7.71078C2.42289 7.64818 2.45354 7.57246 2.45864 7.49349C2.45614 7.45728 2.44498 7.42205 2.42597 7.39034C2.40695 7.35862 2.38055 7.33123 2.34869 7.31014C2.31991 7.28347 2.28557 7.26249 2.24777 7.24849C2.20997 7.23448 2.1695 7.22773 2.1288 7.22866C2.08688 7.22679 2.045 7.23308 2.00587 7.24711C1.96673 7.26114 1.9312 7.28262 1.90157 7.31014C1.82922 7.39042 1.78793 7.49081 1.78429 7.59534L1.05131 7.54102C1.06772 7.38534 1.12023 7.23479 1.20524 7.09964C1.28495 6.99096 1.39698 6.90605 1.52775 6.85518C1.71191 6.78813 1.9089 6.75842 2.10681 6.76691ZM14.267 7.31014C14.4614 7.31014 14.6479 7.38168 14.7853 7.50903C14.9228 7.63638 15 7.80909 15 7.98919C15 8.16928 14.9228 8.342 14.7853 8.46935C14.6479 8.59669 14.4614 8.66824 14.267 8.66824H5.4712C5.37495 8.66824 5.27963 8.65067 5.1907 8.61655C5.10177 8.58242 5.02097 8.5324 4.95291 8.46935C4.88484 8.40629 4.83085 8.33143 4.79401 8.24905C4.75718 8.16666 4.73822 8.07836 4.73822 7.98919C4.73822 7.90002 4.75718 7.81172 4.79401 7.72933C4.83085 7.64694 4.88484 7.57209 4.95291 7.50903C5.02097 7.44598 5.10177 7.39596 5.1907 7.36183C5.27963 7.32771 5.37495 7.31014 5.4712 7.31014H14.267ZM2.70052 2V4.47173H1.96754V2.84881C1.85776 2.92919 1.73995 2.99967 1.61571 3.05931C1.4828 3.1303 1.3429 3.18942 1.19791 3.23586V2.65188C1.40589 2.59586 1.60196 2.50589 1.77696 2.38706C1.91227 2.28014 2.0221 2.14834 2.09948 2H2.70052ZM14.267 2.55682C14.4614 2.55682 14.6479 2.62836 14.7853 2.75571C14.9228 2.88305 15 3.05577 15 3.23586C15 3.41596 14.9228 3.58868 14.7853 3.71602C14.6479 3.84337 14.4614 3.91491 14.267 3.91491H5.4712C5.2768 3.91491 5.09037 3.84337 4.95291 3.71602C4.81544 3.58868 4.73822 3.41596 4.73822 3.23586C4.73822 3.05577 4.81544 2.88305 4.95291 2.75571C5.09037 2.62836 5.2768 2.55682 5.4712 2.55682H14.267Z" fill="currentColor"/>
</svg>
