<svg width="16" height="16" viewBox="0 0 16 16" fill="none" xmlns="http://www.w3.org/2000/svg">
<path d="M13.4463 2C10.7678 2 8.7142 4.15385 8.7142 6.92308V13.5385C8.7142 13.7846 8.92254 14 9.16063 14H14.2202C14.4583 14 14.6666 13.7846 14.6666 13.5385V8.30769C14.6666 8.06154 14.4583 7.84615 14.2202 7.84615H10.4999V6.92308C10.4999 5.38462 11.9583 3.84615 13.4463 3.84615H14.2202C14.4583 3.84615 14.6666 3.63077 14.6666 3.38462V2.46154C14.6666 2.21538 14.4583 2 14.2202 2H13.4463ZM6.06539 2C3.38682 2 1.33325 4.15385 1.33325 6.92308V13.5385C1.33325 13.7846 1.54159 14 1.77968 14H6.8392C7.0773 14 7.28563 13.7846 7.28563 13.5385V8.30769C7.28563 8.06154 7.0773 7.84615 6.8392 7.84615H3.11897V6.92308C3.11897 5.38462 4.5773 3.84615 6.06539 3.84615H6.8392C7.0773 3.84615 7.28563 3.63077 7.28563 3.38462V2.46154C7.28563 2.21538 7.0773 2 6.8392 2H6.06539Z" fill="white"/>
</svg>
