<svg width="16" height="16" viewBox="0 0 16 16" fill="none" xmlns="http://www.w3.org/2000/svg">
<path d="M14.9521 2.97151C14.899 2.70138 14.7478 2.45692 14.5243 2.27977C14.3008 2.10262 14.0189 2.00375 13.7265 2H2.23704C1.94468 2.00375 1.66275 2.10262 1.43928 2.27977C1.21581 2.45692 1.06463 2.70138 1.01149 2.97151C0.996169 3.04881 0.996169 3.1281 1.01149 3.2054V12.7946C1.00877 13.1058 1.13523 13.4058 1.36405 13.6308C1.59286 13.8559 1.90601 13.9883 2.23704 14H13.7265C13.8946 14 14.061 13.9688 14.2161 13.9081C14.3712 13.8474 14.512 13.7585 14.6304 13.6464C14.7488 13.5344 14.8424 13.4014 14.9058 13.2552C14.9692 13.109 15.0012 12.9525 15 12.7946V3.2054C14.9998 3.12531 14.9835 3.04597 14.9521 2.97151ZM6.5456 9.1964V6.8036H9.41798V9.1964H6.5456ZM9.41798 10.4018V12.7946H6.5456V10.4018H9.41798ZM2.23704 6.8036H5.27218V9.1964H2.23704V6.8036ZM10.6914 6.8036H13.7265V9.1964H10.6914V6.8036ZM13.7265 3.2054V5.5982H2.23704V3.2054H13.7265ZM2.23704 10.4018H5.27218V12.7946H2.23704V10.4018ZM10.6914 12.7946V10.4018H13.7265V12.7946H10.6914Z" fill="currentColor"/>
</svg>
